<?xml version="1.0" encoding="UTF-8"?><svg id="a" xmlns="http://www.w3.org/2000/svg" xmlns:xlink="http://www.w3.org/1999/xlink" viewBox="0 0 28 28"><defs><clipPath id="b"><circle cx="14" cy="14" r="14" style="fill:none;"/></clipPath></defs><g style="clip-path:url(#b);"><g><path d="M24.17,4.83l-.14-.09c.05-.04,.1-.09,.14-.15,.09-.13,.14-.28,.14-.43,0-.04,0-.08-.01-.12-.03-.2-.14-.37-.3-.48-.27-.19-.63-.18-.89,.02h0s-.03,.04-.03,.06c0,.01,0,.03,.01,.04,.02,.03,.07,.04,.1,.02,.1-.07,.23-.06,.32,0,.13,.09,.16,.27,.07,.4-.09,.12-.26,.15-.4,.06,0,0-.9-.65-1.01-.72,.07-.1,.74-1.03,.74-1.03,.02-.02,.18-.23,.47-.02,.07,.05,.11,.12,.12,.19,0,.09-.04,.2-.14,.31-.02,.02-.02,.05-.01,.07,0,.02,.03,.04,.05,.05,.01,0,.34,.05,.59-.29,.24-.33-.01-.79-.02-.81,0,0-.28-.56-.11-1.22,0-.03,0-.06-.03-.07-.02-.02-.05-.02-.08,0-.57,.37-1.18,.29-1.19,.29-.04,0-.54-.09-.77,.24-.24,.35-.09,.64-.08,.65,.01,.02,.04,.04,.06,.04s.05-.01,.06-.04c.07-.13,.16-.21,.25-.23,.07-.02,.14,0,.22,.06,.11,.08,.17,.16,.18,.25,0,.01,0,.02,0,.04,0,.09-.05,.15-.05,.16,0,0-.67,.93-.74,1.03-.1-.07-1.01-.72-1.01-.72-.08-.06-.12-.15-.12-.24,0-.06,.02-.11,.05-.16,.04-.06,.11-.1,.19-.12,.07-.01,.15,0,.21,.05,.1,.07,.14,.19,.11,.3-.01,.04,0,.07,.05,.09,.04,.01,.07,0,.09-.04h0c.03-.09,.05-.17,.05-.26,0-.23-.11-.46-.31-.6-.33-.24-.8-.16-1.03,.17-.04,.06-.07,.12-.09,.18l-.13-.1c-.37-.27-.86-.43-1.02-.21-.03,.04-.04,.09-.04,.14,0,.23,.26,.54,.57,.76,0,0,.07,.05,.14,.09-.05,.04-.1,.09-.14,.15-.09,.13-.14,.28-.14,.43,0,.23,.11,.46,.31,.6,.28,.2,.66,.18,.92-.04,.03-.02,.03-.06,.01-.09-.02-.03-.05-.04-.09-.03-.08,.03-.21,0-.29-.07-.13-.1-.16-.27-.07-.4,.04-.06,.11-.1,.18-.12,.07-.01,.15,0,.21,.05l.18,.13s.68,.49,.81,.58c-.33,.25-.87,.24-.87,.24-.02,0-.04,0-.05,.02-.01,.01-.02,.03-.02,.05,.03,.4-.32,.95-.51,1.22H7.85l-.61-.82c.08-.1,.2-.24,.2-.24l.05-.07c.07-.09,.09-.25-.06-.4-.05-.05-.14-.08-.22-.08-.08,0-.14,.04-.18,.09h0l-.11-.15-.14-.19-.11-.16c.05-.06,.15-.19,.15-.19,.03-.04,.05-.09,.05-.15,0-.01,0-.02,0-.04-.01-.09-.06-.17-.12-.22-.06-.05-.15-.08-.23-.07-.05,0-.09,.02-.13,.05,.05-.28-.09-.54-.42-.97-.16-.21-.25-.45-.39-.92,0-.03-.04-.05-.07-.05-.03,0-.06,.02-.07,.05-.07,.25-.11,.43-.13,.56C4.95,.49,4.3,.03,4.27,0c-.02-.02-.06-.02-.08,0-.02,.01-.03,.04-.03,.06h0s.07,.34,.07,.71c0,.26-.03,.55-.15,.77-.12,.21-.17,.41-.18,.57-.03-.11-.05-.22-.06-.3,0-.03-.03-.05-.06-.06-.03,0-.06,0-.07,.04-.2,.37-.26,.69-.26,.94,0,.16,.02,.28,.06,.39-.04-.05-.07-.1-.09-.14-.02-.03-.05-.04-.08-.03-.03,0-.05,.04-.05,.07,.05,.59,.24,1,.54,1.21,.13,.09,.25,.13,.37,.14-.05,.03-.08,.08-.1,.13-.02,.08-.02,.17,.02,.24,.04,.07,.11,.13,.19,.16,.07,.02,.14,.02,.19-.01,0,0,.14-.07,.21-.11l.13,.14,.16,.17,.13,.13h0c-.14,.07-.16,.26-.09,.39,.04,.07,.11,.13,.19,.15,.07,.02,.14,.02,.2-.01l.08-.04,.26-.14,.75,.82V15.01c0,1.89,.74,3.66,2.07,4.99,.06,.06,.13,.12,.19,.18l-.07,.1c-.58,.8-.88,1.73-.69,1.87,.03,.02,.08,.03,.13,.02,.28-.05,.91-.57,1.42-1.28l.04-.05c1.16,.8,2.54,1.23,3.98,1.23s2.68-.39,3.81-1.12c.61,.78,1.35,1.36,1.58,1.2,.21-.15-.13-1.11-.65-1.91,.09-.08,.17-.16,.26-.25,1.33-1.33,2.07-3.11,2.07-4.99V6.13l.05-.07,.04-.06h0c.14-.21,.62-.87,1.08-1,.02,0,.03-.02,.04-.04,0-.01,0-.02,0-.03,0,0,0-.02,0-.02,0,0-.1-.28-.1-.58,0-.11,.02-.22,.05-.32,.13,.09,.99,.71,.99,.71,.08,.06,.12,.14,.12,.23,0,.06-.02,.11-.05,.16-.09,.12-.26,.15-.4,.06-.09-.06-.16-.17-.15-.25,0-.03-.02-.07-.06-.07-.03,0-.07,0-.08,.04-.13,.32-.03,.68,.25,.88,.33,.24,.8,.16,1.03-.17,.04-.06,.07-.12,.09-.18l.13,.1c.31,.22,.64,.34,.84,.31,.08-.01,.14-.05,.17-.1,.03-.04,.04-.09,.04-.14,0-.23-.26-.54-.57-.76Z" style="fill:#1e1e1c;"/><path d="M3.88,4.11c-.22-.15-.36-.43-.44-.82,.07,.07,.15,.14,.23,.17,.03,0,.06,0,.08-.03,0-.01,.01-.03,.01-.04,0-.02,0-.03-.01-.04-.01-.02-.18-.23-.18-.62,0-.19,.04-.42,.15-.68,.04,.19,.12,.44,.24,.53,.03,.02,.06,.02,.09,0,.02-.01,.03-.03,.03-.06,0,0,0-.02,0-.03,0,0-.05-.11-.05-.28,0-.15,.04-.36,.17-.6,.13-.24,.17-.56,.17-.84,0-.21-.02-.4-.04-.54,.25,.21,.75,.69,.95,1.31,.01,.03,.05,.05,.08,.05,.03,0,.05-.04,.05-.07h0s0-.03,0-.06c0-.07,.01-.24,.09-.55,.11,.34,.2,.54,.35,.74,.27,.36,.4,.58,.4,.79,0,.18-.1,.34-.27,.56-.17,.19-.36,.37-.62,.58-.35,.29-.63,.47-.93,.64-.08,.01-.32,.04-.55-.12Z" style="fill:#e20717;"/><path d="M4.67,4.63s-.03,.02-.08,.04c-.07,.04-.18,.1-.18,.1-.02,.01-.05,.01-.09,0-.05-.01-.09-.05-.11-.09-.02-.04-.02-.09-.01-.13,0-.02,.02-.05,.05-.06,.08-.04,.16-.08,.23-.12,.32-.18,.61-.37,.97-.66,.26-.22,.46-.41,.64-.6,.13-.14,.24-.28,.37-.44,.02-.02,.05-.03,.07-.04,.04,0,.09,0,.13,.04h0s.06,.08,.07,.13c0,.03,0,.06-.02,.08,0,0-.07,.09-.13,.16-.03,.04-.05,.07-.05,.07h-.01c-.06,.08-.12,.15-.18,.22h-.01s-.06,.07-.08,.1l-.02,.02s-.06,.06-.08,.08h-.01c-.14,.14-.28,.27-.45,.42-.08,.07-.16,.13-.24,.19h-.01s-.05,.05-.07,.06c-.02,.02-.04,.03-.06,.05-.02,.01-.03,.02-.05,.03-.03,.02-.05,.03-.08,.05-.02,.01-.04,.03-.06,.04l-.05,.03c-.12,.08-.24,.15-.37,.22Z" style="fill:#cb9d3f;"/><path d="M5.09,5l-.16-.17s-.06-.06-.11-.11c.33-.19,.61-.38,.93-.65,.33-.27,.57-.51,.82-.8,.05,.06,.09,.13,.09,.13l.14,.19,.13,.18s-.04,.04-.05,.07l-.03,.04-.03,.04s-.03,.03-.04,.05l-.02,.03s-.04,.05-.06,.07h0l-.04,.04h0l-.04,.04h0s-.03,.03-.04,.05h0l-.04,.05h-.01s-.03,.03-.04,.05h-.01l-.04,.05-.02,.02-.04,.03s-.02,.02-.02,.02c-.01,.01-.02,.02-.04,.03l-.04,.03-.03,.02s-.05,.04-.07,.06c-.03,.02-.05,.04-.07,.06-.01,.01-.03,.02-.04,.04l-.02,.02s-.03,.02-.05,.04h-.02s-.03,.04-.05,.05h-.01l-.05,.04h-.01s-.03,.03-.05,.04h0s-.03,.03-.05,.04h0s-.03,.03-.05,.04h0l-.05,.03h0l-.05,.03h0l-.05,.03h0l-.05,.03h0l-.05,.03h0s-.06,.03-.1,.05c-.02,.01-.05,.02-.07,.04h0s-.16-.16-.16-.16Z" style="fill:#cb9d3f;"/><path d="M5.66,5.47c-.11,.06-.23,.12-.23,.12l-.09,.04s-.05,.01-.09,0c-.04-.01-.09-.05-.1-.08-.03-.07-.03-.17,.03-.2l.08-.04h.01c.36-.19,.57-.3,.99-.65,.42-.35,.57-.54,.82-.86h0l.02-.03h.01l.03-.05s.05-.03,.08-.04c.04,0,.09,.01,.11,.04,.06,.06,.07,.1,.07,.14,0,.03-.02,.06-.02,.07l-.05,.07s-.09,.11-.17,.21c-.06,.07-.11,.13-.11,.13-.12,.14-.24,.26-.4,.4-.06,.05-.12,.1-.18,.16h0c-.06,.06-.12,.11-.18,.15-.17,.13-.31,.23-.47,.32,0,0-.07,.04-.15,.08Z" style="fill:#cb9d3f;"/><path d="M6.51,6.19c-.19-.21-.51-.56-.62-.68,.22-.13,.41-.27,.67-.48,.26-.21,.43-.38,.6-.57,.11,.14,.37,.5,.53,.71h-1.17v1.02Z" style="fill:#cb9d3f;"/><path d="M9.44,20.81c-.57,.79-1.21,1.24-1.34,1.22,0-.01,0-.02,0-.05,0-.21,.2-.89,.72-1.63,0,0,.03-.04,.06-.08,.19,.17,.4,.33,.61,.48l-.04,.05Z" style="fill:#e20717;"/><path d="M18.87,21.98s0,.04,0,.05c-.13,.02-.75-.4-1.35-1.16,.23-.16,.46-.33,.67-.52,.49,.75,.68,1.42,.68,1.63Z" style="fill:#cb9d3f;"/><path d="M24.58,5.65s-.04,.04-.08,.04c-.14,.02-.42-.06-.74-.28l-.2-.16s-.05-.02-.07-.01c-.02,0-.04,.03-.05,.05-.02,.09-.05,.16-.1,.23-.19,.27-.57,.33-.84,.14-.16-.12-.25-.3-.25-.48h0s.08,.09,.13,.12c.2,.13,.46,.09,.59-.1,.14-.19,.09-.46-.1-.59l-1.07-.77s-.04-.02-.06-.01c-.02,0-.04,.02-.05,.04-.07,.15-.09,.31-.09,.47,0,.24,.06,.46,.09,.56-.45,.17-.88,.72-1.07,.99v-.71h-.63c.19-.29,.46-.76,.47-1.15,.18,0,.67-.05,.97-.33,.01-.01,.02-.03,.02-.05h0s-.01-.04-.03-.06l-.89-.64-.18-.13c-.09-.07-.21-.09-.32-.07-.11,.02-.21,.08-.27,.17-.05,.07-.08,.16-.08,.24,0,.13,.06,.26,.17,.35,.04,.04,.1,.06,.15,.08-.18,.06-.38,.04-.54-.08-.27-.19-.33-.57-.14-.84,.05-.07,.11-.13,.19-.17,.02-.01,.03-.04,.03-.06,0-.02-.01-.05-.03-.06l-.22-.14c-.41-.29-.56-.6-.49-.7,.07-.09,.41-.05,.82,.24l.2,.16s.05,.02,.07,.01c.02,0,.04-.03,.05-.05,.02-.09,.05-.17,.1-.24,.19-.27,.57-.33,.84-.14,.11,.08,.19,.19,.22,.32-.01-.01-.02-.02-.04-.04-.09-.07-.2-.09-.32-.07-.11,.02-.21,.08-.28,.17-.13,.19-.09,.44,.09,.59l1.07,.77s.03,.01,.05,.01c.02,0,.04-.01,.05-.03l.78-1.09s.1-.14,.07-.3c-.02-.13-.1-.24-.24-.34-.11-.08-.22-.1-.33-.08-.09,.02-.18,.08-.25,.17,0-.01,0-.03,0-.04,0-.09,.02-.2,.11-.33,.18-.26,.63-.18,.63-.18h0s.58,.08,1.15-.23c-.02,.11-.03,.22-.03,.32,0,.48,.17,.83,.18,.84,0,0,.11,.2,.11,.4,0,.09-.02,.18-.08,.25-.11,.15-.23,.2-.32,.22,.05-.08,.08-.17,.08-.25,0-.01,0-.03,0-.04-.01-.11-.07-.21-.18-.29-.13-.09-.26-.13-.39-.11-.17,.03-.27,.16-.27,.17l-.78,1.09s-.02,.03-.01,.05c0,.02,.01,.03,.03,.05l1.06,.76c.21,.13,.46,.09,.6-.1,.05-.07,.08-.16,.08-.25,0-.13-.06-.26-.18-.35-.02-.01-.03-.02-.05-.02,.13,0,.26,.03,.38,.11,.13,.09,.22,.23,.24,.39,.03,.16-.01,.32-.1,.45-.05,.07-.11,.13-.19,.17-.02,.01-.03,.04-.03,.06,0,.03,.01,.05,.03,.06l.22,.14c.41,.29,.56,.6,.49,.7Z" style="fill:#e20717;"/><path d="M20.79,27.09h.02c.1,.07,.19,.11,.25,.14,.27,.15,.68,.4,.97,.58,.03,.02,.65,.42,1.14,.03,.88-.7,.18-3.13,.05-3.54,.06-.08,.12-.17,.17-.26,.33-.56,.12-.83,.02-.92h0l-1.48-1.43s-.04-.04-.06-.06c-.02-.02-.05-.03-.07-.05-.05-.03-.11-.06-.18-.07-.1-.01-.2,.02-.29,.09-.23,.18-.31,.74-.34,1.03-.67,.52-1.88,1.17-4.03,1.66l-.28-.6c-.09-.19-.3-.31-.54-.31l-.16,.02h-.03c-.65,.18-1.41,.27-2.21,.27h-.38c-.8,0-1.57-.09-2.22-.26h-.02l-.16-.03c-.23,0-.44,.12-.54,.3l-.27,.57c-2.07-.49-3.25-1.12-3.9-1.63-.03-.29-.11-.84-.34-1.03-.09-.07-.19-.1-.29-.09-.07,0-.13,.04-.18,.07-.02,.01-.04,.03-.06,.04-.03,.03-.06,.05-.08,.08l-1.47,1.42c-.1,.09-.3,.36,.02,.92,.05,.09,.11,.17,.17,.26-.13,.42-.83,2.84,.05,3.54,.49,.39,1.11,0,1.14-.03,.29-.18,1.25-.73,1.27-.74,.08-.06,.16-.13,.2-.2,.11-.22,.05-.41,.04-.42,0-.02-.02-.03-.04-.04-.02,0-.04,0-.06,0l-.68,.41c-.19-.38,.06-.88,.12-.99,1.11,.56,2.3,.9,2.86,1.02,.66,.14,.78-.34,.78-.35l.14-.38,.04-.1h.02c.99,.32,2.19,.49,3.42,.49h.46c1.23,0,2.44-.17,3.42-.49,.04-.01,.08-.03,.12-.04,.01,.02,.03,.05,.05,.08l.16,.44s0,.03,.03,.08c.07,.13,.26,.37,.75,.26,.56-.12,1.74-.46,2.86-1.02,.06,.11,.31,.61,.12,.99l-.68-.41s-.04-.01-.06,0c-.02,0-.03,.02-.04,.04,0,0-.06,.21,.04,.42,.04,.07,.11,.14,.2,.2,0,.01,.02,.02,.03,.02Z" style="fill:#1e1e1c;"/><path d="M6.64,26.57s0,.02,0,.03c0,.06-.01,.14-.05,.21-.03,.05-.1,.11-.18,.16-.06,.02-.25,.06-.36-.05,.23-.14,.51-.31,.6-.36Z" style="fill:#cb9d3f;"/><path d="M5.77,26.5c0,.13,.02,.26,.09,.39,.01,.02,.03,.05,.04,.07l.02,.02h.01c.06,.08,.13,.12,.21,.14h0c-.06,.04-.12,.07-.19,.11-.33,.19-.71,.43-.78,.47,0,0-.58,.37-.99,.03-.29-.23-.39-.69-.39-1.2,0-.82,.25-1.78,.35-2.13,.43,.51,1.06,.95,1.73,1.31,.05,.04,.08,.06,.09,.07-.06,.11-.19,.4-.19,.71Z" style="fill:#cb9d3f;"/><path d="M8.97,26.73c-.58-.12-1.86-.5-3.01-1.11-.31-.17-.62-.35-.9-.55-.14-.11-.28-.22-.4-.32-.2-.18-.38-.36-.52-.56-.05-.07-.1-.15-.15-.22-.11-.18-.16-.35-.16-.49,0-.12,.04-.21,.11-.28,0,0,1.06-1.02,1.39-1.34l.07-.07s0,.06,.02,.08l.03,.05v.02c.15,.22,.4,.52,.84,.85,.7,.52,1.87,1.1,3.84,1.57l-.73,1.57v.02s-.02,.02-.02,.04c-.02,.14,.06,.39,.13,.55,0,.01,.02,.04,.03,.06-.08,.09-.24,.18-.55,.11Z" style="fill:#cb9d3f;"/><path d="M9.75,26.07s-.02,.04-.03,.07c-.07,.2-.12,.33-.12,.33h0c-.05-.13-.11-.37-.11-.43,0,0,0-.02,0-.02,.02-.03,.14-.08,.2-.06,.03,0,.06,.02,.09,.03-.01,.03-.02,.06-.03,.09Z" style="fill:#cb9d3f;"/><path d="M17.4,25.84s-.06,.02-.09,.03c-.05,.02-.1,.03-.15,.05-.97,.31-2.16,.48-3.37,.48h-.46c-1.21,0-2.39-.17-3.37-.48h-.03s-.08-.04-.12-.05c-.03-.01-.06-.02-.09-.03-.04-.01-.1-.01-.16,0v-.03c.11-.21,.43-.89,.67-1.41l.05-.12c.14-.31,.25-.54,.25-.54,.08-.15,.24-.24,.43-.24l.13,.02h.02c.66,.18,1.44,.27,2.25,.27h.38c.81,0,1.59-.09,2.25-.26h.02l.13-.02c.19,0,.35,.09,.42,.23,0,0,.12,.25,.27,.57,.06,.13,.13,.27,.19,.42,.22,.47,.44,.95,.5,1.08,0,.02,.01,.03,.01,.03-.04,0-.08-.01-.12,0-.01,0-.03,0-.04,0Z" style="fill:#cb9d3f;"/><path d="M17.6,26.27l-.11-.32c.06,0,.15,.04,.16,.06h0v.02s-.02,.13-.05,.23Z" style="fill:#cb9d3f;"/><path d="M18.3,26.73c-.53,.11-.62-.23-.63-.25h0c.04-.13,.09-.28,.1-.39,.07-.02,.13-.04,.14-.05,.02,0,.09-.02,.17-.05,.02,0,.03-.01,.03-.02,0,0-.01-.01-.03,0-.02,0-.05,.01-.07,.01-.03,0-.05-.03-.08-.12l-.16-.5h0s.22,.12,.4,.21c.18,.09,.39,.19,.49,.24,.02,0,.04,.02,.06,.01,.01,0,.02-.02,.01-.05l-.21-.78c-.02-.07-.02-.09,.02-.12,.02,0,.03-.01,.04-.02,.02,0,.02-.01,.02-.02,0,0-.02,0-.03,0-.07,.02-.11,.04-.13,.04-.03,0-.1,.03-.17,.05-.02,0-.03,.01-.03,.02,0,0,0,.01,.02,0,.02,0,.05-.01,.07-.01,.04,0,.05,.02,.08,.1l.18,.55h0s-.25-.13-.37-.19c-.25-.12-.5-.26-.53-.27-.03-.01-.05-.03-.07-.02-.01,0-.02,.02,0,.05l.2,.74c.03,.11,.04,.14,0,.16-.01,0-.03,.01-.04,.02,0-.02,0-.04,0-.06h0v-.02h0v-.04h-.02s-.06-.14-.06-.14l-.65-1.4c2.04-.47,3.25-1.07,3.96-1.6,.44-.32,.68-.62,.83-.85l.02-.03,.02-.04s.01-.05,.02-.08c.02,.02,.04,.04,.07,.07,.33,.32,1.39,1.34,1.39,1.34,.08,.07,.11,.16,.11,.28,0,.14-.05,.3-.16,.49-.04,.08-.09,.15-.15,.22-.14,.2-.32,.39-.52,.56-.13,.1-.27,.21-.41,.32-.28,.2-.58,.38-.9,.55-1.15,.61-2.43,.98-3.01,1.1Z" style="fill:#cb9d3f;"/><path d="M21.34,26.99h.01v-.02h.01v-.02s.03-.04,.04-.07c.06-.12,.09-.26,.09-.38,0-.31-.13-.6-.19-.71v-.02s.05-.03,.09-.05c.68-.36,1.31-.8,1.73-1.31,.1,.35,.35,1.3,.35,2.13,0,.51-.1,.96-.39,1.2-.41,.33-.99-.03-.99-.03-.07-.04-.45-.28-.78-.47-.07-.04-.13-.08-.19-.11h0c.07-.02,.15-.05,.21-.13Z" style="fill:#cb9d3f;"/><path d="M20.68,26.81c-.04-.08-.05-.16-.05-.22,0-.01,0-.02,0-.03,.08,.05,.36,.22,.6,.36-.12,.11-.3,.07-.37,.05-.08-.05-.15-.11-.18-.16Z" style="fill:#cb9d3f;"/><path d="M18.99,24.64c-.34,.13-.36,.45-.28,.66,.09,.21,.32,.42,.64,.29,.29-.11,.38-.4,.28-.68-.11-.27-.35-.38-.63-.27Z" style="fill:#1e1e1c;"/><path d="M19.37,25.5c-.21,.08-.41-.06-.51-.31-.12-.3,0-.43,.12-.48,.18-.07,.39,.03,.49,.3,.14,.34-.03,.45-.11,.48Z" style="fill:#cb9d3f;"/><path d="M14.23,25.61s-.05,0-.07,0c-.04,0-.05-.03-.06-.06,0-.06-.02-.17-.02-.31v-.25c-.02-.22-.02-.26-.02-.3,0-.05,.01-.07,.05-.08,.02,0,.03,0,.04,0,.01,0,.02,0,.02-.02,0,0-.01-.01-.03-.01-.05,0-.14,0-.17,.01-.04,0-.13,0-.18,0-.02,0-.03,0-.03,.01,0,.01,0,.02,.02,.02,.02,0,.03,0,.05,0,.03,0,.04,.02,.05,.07,0,.05,0,.08,.02,.3v.25c.02,.14,.02,.25,.02,.31,0,.04-.01,.06-.04,.07-.01,0-.03,0-.05,0-.02,0-.02,0-.02,.02,0,.01,.01,.01,.03,.01,.05,0,.14-.01,.17-.01,.04,0,.13,0,.21,0,.02,0,.03,0,.03-.02,0,0,0-.02-.02-.02Z" style="fill:#1e1e1c;"/><path d="M15.11,24.45s-.02,0-.04,.01c-.02,0-.05,.01-.09,.02l-.54,.06s-.09,0-.13,0c-.03,0-.05-.01-.06,0,0,0-.01,0-.01,.03,0,.01-.01,.15,0,.18,0,.02,0,.02,.01,.02,0,0,.01,0,.01-.02,0-.01,0-.03,.02-.05,.02-.03,.05-.05,.12-.06l.2-.03,.07,.57c.02,.13,.03,.24,.03,.3,0,.04,0,.07-.03,.08,0,0-.03,0-.05,.01-.02,0-.02,.01-.02,.02,0,.01,.01,.02,.03,.01,.05,0,.14-.02,.17-.03,.04,0,.13-.01,.21-.02,.02,0,.03,0,.02-.02,0,0,0-.01-.02-.01-.02,0-.05,0-.07,0-.04,0-.05-.03-.06-.07-.01-.06-.03-.17-.04-.3l-.07-.57,.17-.02c.12-.01,.16,.03,.17,.06h0s0,.04,.02,.04c0,0,0,0,0-.02,0-.04-.01-.14-.02-.17,0-.02,0-.03-.01-.03Z" style="fill:#1e1e1c;"/><path d="M12.8,25.42s-.01,0-.02,.02c-.01,.06-.03,.09-.07,.1-.04,.01-.09,.01-.13,0l-.31-.04s-.04-.01-.07-.08c0-.01,0-.02,0-.03-.02-.09-.04-.23-.07-.37,0,0,.5,.07,.52,.08,.05,0,.06,.03,.07,.06,0,.02,0,.04,0,.05,0,0,0,.01,.01,.01,.01,0,.01-.02,.02-.03,0,0,.01-.07,.02-.09,.01-.07,.02-.09,.02-.1,0,0,0-.02,0-.02-.01,0-.02,0-.03,.02-.01,.01-.03,.02-.07,.02-.03,0-.58-.08-.58-.08-.03-.17-.07-.34-.08-.42,.1,.02,.58,.08,.6,.09,.07,.01,.07,.04,.08,.06,0,.02,0,.04,0,.05,0,.01,0,.02,0,.02,.01,0,.02-.01,.02-.02,0-.02,.02-.08,.02-.09,0-.07,.02-.08,.02-.09,0,0,0-.01,0-.02,0,0-.01,0-.02,0,0,0-.03,0-.06,0-.02,0-.65-.11-.71-.11h0s-.03,.01-.05,.05l-.5,.82c-.04,.07-.07,.1-.13,.1h-.04s-.02,0-.02,0c0,.01,0,.02,.02,.02,.07,.01,.14,.02,.15,.02,.04,0,.1,.02,.15,.03,.01,0,.02,0,.02-.01,0,0,0-.01-.02-.02h-.02s-.05-.03-.05-.05c0-.02,.02-.05,.03-.08l.1-.18s0,0,.01,0l.31,.06s.01,0,.01,.01l.05,.3s0,.03-.02,.03c-.01,0-.02,0-.02,.01,0,.01,.01,.01,.04,.02,.07,0,.18,.02,.24,.03,.06,0,.12,.02,.17,.02,.07,0,.16,.02,.25,.03,.05,0,.06,0,.08-.03,.01-.03,.03-.12,.03-.15,0-.02,0-.03,0-.04Z" style="fill:#1e1e1c;"/><path d="M11.97,25.1l-.25-.05s0,0,0-.01l.19-.33h.01l.06,.38s0,0,0,0Z" style="fill:#cb9d3f;"/><path d="M13.7,24.58s-.02,0-.04,0c-.02,0-.05,0-.09,0h-.54s-.09-.02-.13-.02c-.03,0-.05-.02-.06-.02,0,0-.01,0-.02,.03,0,.01-.03,.15-.03,.17,0,.02,0,.02,.01,.02s.01,0,.02-.02c0,0,0-.03,.02-.05,.02-.03,.05-.04,.13-.04h.2v.58c-.02,.13-.02,.24-.03,.3,0,.04-.01,.07-.04,.07-.01,0-.03,0-.05,0-.02,0-.02,0-.02,.01,0,.01,0,.02,.02,.02,.05,0,.14,0,.17,0,.04,0,.13,0,.22,.01,.01,0,.02,0,.03-.01,0,0,0-.02-.02-.02-.02,0-.05,0-.07,0-.04,0-.05-.03-.05-.08,0-.06,0-.17,0-.31l.02-.58h.17c.12,.01,.15,.06,.16,.09v.02s0,.03,.01,.03c0,0,.01,0,.01-.02,0-.04,0-.14,0-.17,0-.02,0-.03,0-.03Z" style="fill:#1e1e1c;"/><path d="M11.29,25.17s-.02,0-.02,.02c-.01,.03-.04,.06-.06,.07-.04,.03-.09,.01-.16,0-.1-.03-.14-.05-.16-.08-.02-.03,0-.12,.06-.3l.07-.24c.06-.21,.08-.24,.09-.29,.02-.05,.03-.06,.07-.06,.02,0,.04,0,.05,.01,.02,0,.02,0,.03,0,0,0,0-.01-.02-.02-.05-.02-.15-.04-.18-.05-.04-.01-.11-.04-.17-.06-.02,0-.03,0-.03,0,0,0,0,.02,.02,.02,.02,0,.03,.01,.04,.02,.04,.03,.04,.04,.03,.09-.01,.04-.02,.08-.09,.29l-.07,.24c-.04,.13-.07,.23-.1,.29-.02,.04-.03,.06-.06,.06-.01,0-.03,0-.05,0-.02,0-.02,0-.02,0,0,.01,0,.02,.02,.02,.03,0,.06,.02,.09,.02,.03,0,.06,.02,.07,.02,.05,.02,.1,.03,.17,.05,.06,.02,.14,.05,.23,.07,.07,.02,.07,.02,.09-.01,.02-.04,.06-.14,.07-.15,0-.02,0-.03,0-.03Z" style="fill:#1e1e1c;"/><path d="M16.86,25.14s-.03,0-.05,0c-.02,0-.07,0-.15-.12-.13-.19-.49-.7-.54-.77-.02-.03-.03-.04-.05-.04-.01,0-.02,.02-.02,.06l-.12,.96c0,.08-.02,.13-.08,.15h-.04s0,0-.02,0c-.02,0-.05,0-.07,0-.04,0-.05-.02-.07-.06-.02-.06-.04-.17-.06-.31l-.04-.25c-.04-.21-.05-.25-.05-.3,0-.05,0-.07,.03-.08,.02,0,.03-.01,.04-.01,.01,0,.02,0,.02-.02,0,0-.01-.01-.03,0-.05,.01-.14,.03-.17,.03-.04,0-.13,.02-.18,.03-.02,0-.03,0-.03,.02,0,.01,0,.02,.02,.01,.02,0,.03,0,.05,0,.03,0,.05,.02,.06,.07,0,.04,.02,.08,.06,.3l.05,.25c.03,.14,.05,.25,.05,.31,0,.04,0,.06-.03,.07-.01,0-.03,.01-.05,.01-.02,0-.02,.01-.02,.02,0,0,.01,.01,.03,.01,.05,0,.14-.03,.17-.04,.04,0,.13-.02,.21-.03h.02s.01,0,.03,0c.07-.02,.14-.04,.15-.04,.04,0,.1-.02,.15-.03,.01,0,.02,0,.02-.02,0,0,0-.01-.02,0h-.02s-.06,0-.06-.02c0-.02,0-.05,0-.09l.02-.2s0-.01,0-.01l.3-.08s.01,0,.02,0l.17,.25s0,.03,0,.03c-.01,0-.01,.01-.01,.02,0,0,.02,0,.04,0,.11-.02,.2-.05,.25-.06,.05-.01,.06-.02,.05-.03,0,0,0-.01-.02-.01Z" style="fill:#1e1e1c;"/><path d="M16.32,24.85l-.25,.06s0,0,0,0l.04-.38s0-.01,0-.02h0l.21,.33s0,0,0,.01Z" style="fill:#cb9d3f;"/><path d="M21.6,24.24s.03,.06,0,.08c0,0-.02,.02-.04,.03-.01,.01-.01,.02,0,.02,0,0,.02,0,.03,0,.04-.03,.11-.09,.13-.11,.02-.01,.11-.08,.17-.13,.01-.01,.02-.02,.01-.03,0,0-.01,0-.02,0-.01,.01-.04,.03-.06,.04-.04,.02-.06,0-.08-.02-.04-.04-.1-.12-.18-.21h-.01s0-.03,0-.03l.1-.07s.02,0,.03,0c.03,0,.13,.04,.21,.06,.12,.03,.22,.05,.28,.04,.04,0,.06-.02,.12-.07l.03-.03s.06-.06,.07-.07h0s.08-.08,.11-.11c.01,0,.01-.02,0-.03,0,0-.01,0-.02,0h-.01s-.05,.04-.06,.03c-.01-.01-.03-.04-.04-.07l-.07-.17s0,0,0-.01l.23-.23s0,0,.02,0l.26,.1s.02,.02,.01,.03c0,.01,0,.02,0,.02,0,0,.02,0,.04-.02,.08-.08,.16-.15,.19-.19,.04-.04,.04-.04,.03-.05,0,0-.01,0-.02,0-.01,.01-.02,.02-.04,.03-.02,.01-.06,.03-.18-.01-.2-.07-.74-.28-.82-.3-.03-.01-.04-.01-.06,0-.01,.01,0,.03,0,.07l.33,.83s.03,.08,.02,.12c-.03,0-.06,0-.12,0-.11-.01-.26-.04-.45-.08,.04-.17,.03-.27-.02-.34-.05-.07-.14-.08-.19-.08-.09,0-.17,.07-.24,.12-.03,.03-.13,.11-.17,.14-.02,.02-.09,.07-.15,.11-.02,.01-.02,.02-.02,.03,0,0,.02,0,.03,0,.02-.01,.04-.03,.05-.03,.04-.02,.06-.01,.09,.02,.03,.03,.05,.06,.17,.21l.14,.18c.07,.09,.14,.17,.16,.22Z" style="fill:#1e1e1c;"/><path d="M22.28,23.28s0,0-.01,0l-.14-.32s0-.01,0-.01h.01l.33,.14s0,0,0,0l-.19,.19Z" style="fill:#cb9d3f;"/><path d="M21.26,23.51s0-.01,0-.02c0-.01,.03-.03,.06-.05,.06-.05,.2-.09,.31,.05,.07,.08,.06,.16,.05,.21,0,.03-.02,.04-.06,.08-.03,.02-.06,.04-.09,.06-.01,0-.02,0-.03-.01l-.24-.3Z" style="fill:#cb9d3f;"/><path d="M20.06,24.6h-.06c-.14,0-.18-.04-.21-.09-.04-.08,.02-.16,.11-.21,.08-.04,.14-.03,.16-.02,.04,.02,.07,.05,.07,.06,0,.01,.01,.02,.02,.01,.01,0,.01-.02,0-.04-.05-.09-.06-.13-.06-.14,0,0-.01,0-.03,0-.04,0-.11,.03-.19,.07-.17,.09-.27,.25-.2,.39,.05,.1,.14,.16,.32,.16h.09c.14,.01,.18,.06,.2,.11,.04,.08,0,.18-.1,.23-.08,.04-.19,.06-.25-.01-.02-.02-.03-.04-.04-.06,0,0-.01-.02-.02-.01-.01,0,0,.02,0,.04,0,.02,.04,.09,.07,.16,.01,.03,.02,.03,.04,.03,.07,0,.14-.04,.22-.07,.07-.03,.14-.08,.18-.15,.06-.11,.06-.19,.02-.28-.05-.1-.15-.17-.36-.17Z" style="fill:#1e1e1c;"/><path d="M21.25,24.57s-.05,.03-.06,.03c-.04,.02-.06,0-.08-.03-.04-.05-.09-.13-.15-.23l-.28-.44,.15-.09c.11-.06,.16-.05,.18-.02h0s.02,.03,.03,.03c0,0,0-.01,0-.03-.02-.03-.06-.11-.08-.13,0-.02-.02-.02-.02-.02,0,0-.01,.01-.03,.02-.02,.01-.04,.03-.08,.05l-.48,.3s-.08,.05-.12,.07c-.03,.01-.05,.01-.06,.02,0,0,0,.01,0,.03,0,.01,.05,.13,.06,.15,0,.01,.01,.02,.02,.01,0,0,0-.01,0-.02,0,0,0-.03,0-.05,0-.04,.03-.06,.09-.1l.17-.11,.27,.44c.06,.1,.12,.19,.14,.24,.02,.03,.02,.06,0,.08,0,0-.02,.02-.04,.03-.02,0-.02,.02-.01,.02,0,0,.02,0,.03,0,.04-.03,.12-.08,.15-.1,.03-.02,.12-.07,.19-.11,.01,0,.02-.02,.02-.03,0,0-.01,0-.03,0Z" style="fill:#1e1e1c;"/><path d="M21.42,21.68c.06-.05,.12-.07,.19-.06,.02,0,.04,0,.05,.01,.02,.01,.12,.07,.08,.18l-.02,.03-.02,.03c-.09,.15-.26,.37-.56,.62,.04-.3,.12-.69,.28-.81Z" style="fill:#cb9d3f;"/><path d="M7.04,24.28c.04-.07,.06-.22-.17-.34-.04-.02-.09-.04-.16-.08-.02-.01-.1-.06-.17-.09-.02,0-.03-.01-.03,0,0,.01,0,.01,.02,.02,.02,0,.04,.02,.05,.03,.04,.03,.04,.06,.01,.1-.02,.04-.04,.08-.15,.29l-.12,.23c-.06,.12-.12,.23-.16,.28-.02,.04-.05,.06-.07,.05-.01,0-.03,0-.05-.02-.01,0-.02,0-.03,0,0,0,0,.02,.02,.03,.02,.01,.06,.03,.09,.04,.03,.01,.06,.03,.07,.04,.02,0,.06,.03,.09,.05,.04,.02,.07,.04,.09,.05,.23,.12,.41,.03,.49-.11,.08-.16,0-.32-.08-.41,.1-.02,.19-.06,.25-.16Z" style="fill:#1e1e1c;"/><path d="M6.68,24.83c-.07,.14-.18,.12-.24,.09-.03-.02-.06-.03-.08-.06-.03-.04-.02-.06,.02-.15l.16-.32s0,0,.01,0c.02,0,.03,.02,.05,.03,.05,.03,.07,.05,.09,.09,.06,.12,.03,.25-.02,.33Z" style="fill:#cb9d3f;"/><path d="M6.64,24.36s-.05-.03-.06-.04c0,0,0,0,0-.02l.17-.33s.01-.02,.02-.02c.01,0,.02,0,.04,.02,.11,.06,.1,.2,.05,.29-.03,.06-.08,.1-.12,.11-.03,0-.06,0-.1-.02Z" style="fill:#cb9d3f;"/><path d="M6,24.75s-.03-.02-.05-.04c-.02-.02-.05-.06-.02-.21,.05-.24,.2-.88,.21-.97,0-.04,0-.05,0-.06-.01,0-.03,0-.07,.03l-.82,.59c-.07,.05-.12,.07-.18,.05-.01,0-.03-.02-.04-.02,0,0-.01,0-.02,0,0,0,0,.02,.02,.03,.06,.04,.13,.08,.14,.09,.04,.02,.09,.06,.12,.09,.01,0,.02,.01,.03,0,0,0,0-.01-.01-.02h-.02s-.04-.06-.02-.08c0-.01,.04-.04,.07-.06l.18-.14s.01,0,.02,0l.27,.18s0,0,0,.02l-.08,.33s-.02,.02-.03,.02c-.01,0-.02,0-.03,0,0,0,0,.02,.03,.03,.09,.06,.18,.12,.22,.15,.04,.03,.06,.03,.06,.02,0,0,0-.01,0-.02Z" style="fill:#1e1e1c;"/><path d="M5.84,24.11l-.22-.14s0,0,0-.01l.31-.24s.01,0,.01,0c0,0,0,0,0,.01l-.1,.38s0,0-.01,0Z" style="fill:#cb9d3f;"/><path d="M7.8,24.34c-.38-.15-.65,.1-.75,.33-.11,.24-.09,.6,.27,.75,.32,.13,.63-.04,.77-.36,.14-.32,.03-.6-.28-.72Z" style="fill:#1e1e1c;"/><path d="M7.88,25.04c-.18,.4-.4,.37-.49,.33-.24-.1-.28-.38-.16-.67,.15-.34,.35-.37,.5-.31,.2,.08,.28,.34,.15,.65Z" style="fill:#cb9d3f;"/><path d="M8.99,25.98s-.02,0-.04-.02c-.02-.01-.07-.04-.12-.15-.05-.12-.11-.27-.18-.47,.18-.07,.25-.16,.28-.26,.03-.1,0-.19-.03-.23-.06-.08-.14-.11-.23-.14-.04-.01-.15-.04-.19-.06-.03,0-.11-.04-.19-.06-.02,0-.03,0-.03,0,0,0,0,.01,.02,.02,.02,0,.04,.01,.05,.02,.04,.02,.04,.05,.03,.1-.01,.05-.03,.09-.09,.3l-.08,.25c-.04,.13-.08,.24-.1,.3-.02,.04-.04,.07-.06,.07-.01,0-.03,0-.05,0-.02,0-.02,0-.03,0,0,0,0,.02,.02,.02,.05,.02,.14,.04,.17,.05,.02,0,.12,.04,.2,.07,.02,0,.03,0,.03,0,0,0,0-.01-.01-.02-.02,0-.04-.02-.06-.03-.04-.02-.04-.05-.03-.1,.01-.06,.05-.18,.09-.31v-.02s.02,0,.02,0l.12,.04s.02,0,.02,.02c.01,.03,.04,.14,.07,.24,.04,.13,.07,.22,.12,.27,.03,.03,.06,.05,.14,.07l.13,.04s.03,0,.03,0c0,0,0-.01-.01-.02Z" style="fill:#1e1e1c;"/><path d="M8.5,25.28s-.07-.03-.1-.05c0,0,0-.01,0-.03l.14-.43s0-.02,.02-.02c.01,0,.04,0,.07,.02,.08,.03,.19,.13,.12,.33-.04,.12-.1,.17-.15,.19-.03,.01-.05,.01-.1,0Z" style="fill:#cb9d3f;"/><path d="M5.13,23.92s-.02,0-.03,0c-.02,.02-.06,.04-.09,.04-.06,0-.1-.04-.16-.09-.09-.08-.11-.12-.12-.16,0-.04,.06-.12,.2-.26l.18-.19c.16-.17,.19-.2,.22-.23,.04-.04,.07-.05,.1-.02,.02,0,.03,.03,.05,.04,.01,.01,.02,.02,.03,0,0,0,0-.02-.02-.03-.05-.04-.13-.12-.16-.14-.03-.03-.1-.1-.15-.15-.02-.02-.03-.02-.03-.01,0,0,0,.02,0,.03,.02,.01,.03,.03,.04,.04,.03,.04,.02,.07,0,.11-.03,.04-.06,.07-.21,.23l-.18,.19c-.09,.1-.18,.19-.22,.23-.03,.03-.06,.05-.09,.03-.01,0-.03-.02-.05-.03-.01-.01-.02-.01-.03,0,0,0,0,.02,.01,.03,.02,.02,.05,.05,.08,.07,.03,.03,.05,.05,.07,.06,.05,.04,.09,.08,.14,.14,.05,.05,.11,.11,.19,.18,.06,.06,.07,.06,.1,.04,.04-.02,.12-.1,.14-.11,.01-.01,.02-.02,0-.03Z" style="fill:#1e1e1c;"/><path d="M5.61,21.64s.03-.01,.05-.01c.06,0,.13,.01,.19,.06,.16,.13,.24,.51,.28,.82-.3-.26-.47-.47-.56-.62l-.02-.02-.02-.04s0-.03-.01-.04h0c0-.09,.07-.13,.09-.14Z" style="fill:#cb9d3f;"/><path d="M13.57,22.07h0c-3.89,0-7.06-3.18-7.06-7.06V5.16h14.13c0,3.28,0,6.56,0,9.84,0,3.88-3.18,7.06-7.06,7.06Z" style="fill:#cb9d3f; fill-rule:evenodd;"/><path d="M20.36,15.01c0,1.81-.71,3.51-1.99,4.79-1.28,1.28-2.98,1.99-4.8,1.99s-3.52-.71-4.8-1.99c-.37-.37-.7-.78-.97-1.22-.15-.24-.27-.48-.39-.71-.41-.88-.63-1.86-.63-2.86V5.44h13.57V15.01Z" style="fill:#004884;"/><path d="M7.33,6.98c.07-.05,.43-.31,.43-.31,0,0,.35,.26,.43,.31-.03-.09-.16-.5-.16-.5,0,0,.35-.26,.43-.31h-.53s-.14-.42-.16-.51c-.03,.09-.16,.51-.16,.51h-.53c.07,.05,.43,.31,.43,.31,0,0-.13,.41-.16,.5Z" style="fill:#c7c6c5;"/><path d="M18.96,6.98c.07-.05,.42-.31,.42-.31,0,0,.36,.26,.43,.31-.03-.09-.16-.5-.16-.5l.43-.31h-.53s-.13-.42-.16-.51c-.03,.09-.16,.51-.16,.51h-.53c.07,.05,.43,.31,.43,.31,0,0-.13,.41-.16,.5Z" style="fill:#c7c6c5;"/><path d="M11.4,20.15s-.13-.42-.16-.51c-.03,.09-.16,.51-.16,.51h-.53c.08,.05,.43,.31,.43,.31,0,0-.13,.41-.16,.5,.07-.05,.43-.31,.43-.31,0,0,.35,.26,.43,.31l-.16-.5s.35-.26,.43-.31c-.09,0-.53,0-.53,0Z" style="fill:#c7c6c5;"/><path d="M16.07,20.15s-.14-.42-.17-.51c-.03,.09-.16,.51-.16,.51h-.53c.08,.05,.43,.31,.43,.31,0,0-.13,.41-.16,.5,.08-.05,.43-.31,.43-.31,0,0,.35,.26,.43,.31-.03-.09-.16-.5-.16-.5,0,0,.35-.26,.42-.31-.09,0-.52,0-.52,0Z" style="fill:#c7c6c5;"/><path d="M18.91,16.87c.07-.05,.42-.31,.42-.31,0,0,.35,.26,.43,.31-.03-.09-.16-.5-.16-.5,0,0,.35-.25,.42-.31h-.53s-.14-.42-.16-.51c-.03,.09-.17,.51-.17,.51h-.53c.08,.06,.44,.31,.44,.31,0,0-.13,.41-.16,.5Z" style="fill:#c7c6c5;"/><path d="M13.57,19.93c2.71,0,4.93-2.21,4.93-4.92V7.3H8.64v7.71c0,2.71,2.21,4.92,4.93,4.92Z" style="fill:#cb9d3f;"/><path d="M8.92,7.58h9.3v7.43c0,2.56-2.09,4.64-4.65,4.64s-4.65-2.08-4.65-4.64V7.58Z" style="fill:#fff;"/><path d="M7.97,16.06s-.14-.42-.16-.51c-.03,.09-.16,.51-.16,.51h-.53c.07,.06,.43,.31,.43,.31,0,0-.13,.41-.16,.5,.07-.05,.42-.31,.42-.31,0,0,.35,.26,.43,.31-.03-.09-.16-.5-.16-.5,0,0,.35-.25,.43-.31h-.53Z" style="fill:#c7c6c5;"/><path d="M10.28,13.21c.08,.04,.18,.05,.26,.01,.08-.03,.15-.09,.19-.16,.03-.05,.03-.11,.03-.16v-.02c.07-.02,.24,0,.41,.05h0l.18,.06c.1,.03,.25,.07,.43,.11t.1,.1l.07,.11c.14,.22,.37,.21,.48,.18l.06-.02c.16,.17,.37,.15,.48,.11l.17-.06-.13-.12c-.11-.1-.15-.16-.17-.19,.11,0,.21-.02,.31-.04,.12,.17,.33,.38,.69,.57-.13,.06-.42,.18-.66,.21-.11,.01-.46,.09-.68,.37-.24-.02-.4,.05-.47,.19-.06,.14-.03,.27,.02,.36,.13,.2-.05,.47-.05,.47,0,0,.19,0,.36-.15,.01,.04,.02,.08,.04,.12,.11,.32,.26,.5,.36,.63,.08,.1,.12,.15,.12,.21,0,.04-.02,.08-.05,.13-.01,.02-.21,.29-.61,.53-.12,.07-.24,.12-.33,.14-.19,.05-.25-.01-.26-.03-.03-.17-.19-.29-.36-.27-.09,0-.17,.05-.22,.12-.12,.02-.21,.09-.23,.19,0,.02-.01,.05,0,.07,0,.19,.11,.28,.11,.28,0,0,.04-.11,.11-.14,.02,.02,.04,.05,.06,.07-.09,.05-.14,.14-.15,.24-.07,.06-.12,.13-.12,.2v.03c.04,.24,.23,.29,.23,.29,0,0,.02-.18,.07-.2,.06,.03,.13,.04,.19,.04,.01,0,.03,0,.04,0h0s0,.06,.02,.08c-.01,.03-.02,.07-.02,.1,0,.03,0,.06,.01,.09,.12,.25,.4,.2,.4,.2,0,0-.08-.1-.07-.18h.02c.09-.01,.17-.06,.23-.13,.05-.06,.07-.13,.07-.2,0-.01,0-.02,0-.03,0-.07-.03-.12-.06-.17,.07-.07,.3-.18,.54-.2,.06,0,.13,0,.21,.02,.17,.03,.39,.07,.62-.08,0,0,.11-.08,.18-.12,.05-.02,.1-.06,.15-.13,0,0,.02-.03,.03-.05,.1-.02,.22-.08,.31-.24l.05-.08c.09-.04,.17-.11,.23-.26h0s.06,.02,.1,.04c.06,.02,.1,.03,.11,.04,0,0,.04,.01,.09,.04,.11,.08,.14,.29,.14,.29,0,0,.14-.15,.14-.34,0-.04,0-.07-.02-.11,.08,.04,.17,.07,.27,.1l.12,.03c.29,.09,.43,.15,.43,.27,0,0,0,.02,0,.02-.04,.28-.33,.76-.57,.95-.09,.07-.14,.07-.16,.07-.07,0-.09-.02-.1-.02-.05-.08-.12-.19-.27-.21-.07-.01-.15,0-.21,.04-.1-.02-.2-.01-.25,.05-.16,.17-.06,.46-.06,.46,0,0,.09-.1,.16-.12,.03,.08,.09,.15,.17,.19-.03,.04-.04,.08-.05,.13,0,.01,0,.02,0,.04-.07,.07-.1,.14-.1,.19h0c.01,.19,.23,.33,.23,.33,0,0,.03-.16,.07-.22,.03,.02,.06,.03,.08,.03,.06,0,.13,0,.18-.03,.03,.07,.08,.14,.15,.18h0c0,.12-.1,.23-.1,.23,0,0,.25,.08,.43-.07,.03-.03,.06-.09,.06-.17v-.02c.06-.05,.09-.12,.1-.21,0-.02,0-.03,0-.05,0-.12-.06-.2-.12-.25h0s0-.07,.04-.12c.05-.07,.14-.11,.27-.11,.02,0,.06,0,.1,.01,.19,.03,.53,.08,.73-.29,0,0,.03-.05,.04-.08,.09-.03,.18-.09,.2-.22v-.04c.1-.05,.18-.13,.2-.28,0,0,0-.04,0-.06,.26-.09,.27-.51,.27-.51,0,0-.21,.13-.36,.11,0-.04,.01-.08,.01-.08,0-.06,.02-.11,.02-.16,0-.06-.01-.11-.05-.16-.07-.09-.19-.12-.36-.13-.07,0-.14-.02-.19-.04h0s-.15-.05-.19-.12c0,0,0-.02,0-.04s0-.04,.02-.07c.01-.03,.03-.05,.06-.08,.42,.15,.62-.07,.7-.17,.02-.03,.05-.08,.05-.12,0-.02,0-.05-.03-.07h0c.11-.07,.17-.17,.2-.28l.04-.2-.19,.08s-.13,.04-.22,.04c.01-.06,.02-.13,.03-.21,.21,0,.52-.04,.74-.23,.17-.15,.27-.36,.27-.62,0-.18-.04-.34-.12-.49,.04-.08,.07-.16,.07-.26,0-.11-.04-.23-.15-.33-.07-.07-.14-.1-.19-.13-.09-.05-.13-.07-.16-.24l-.03-.28-.16,.23c-.04,.06-.09,.16-.09,.27-.3-.24-.4-.43-.4-.76,0-.11,.04-.22,.12-.33,.15,.09,.32,.13,.5,.11,.2-.03,.38-.13,.47-.28,.07-.1,.11-.21,.16-.32,.08-.21,.15-.37,.42-.49-.14-.12-.42-.1-.58,0,0-.06,.01-.12,.01-.18s0-.12,0-.18v-.02c0-.27,.36-.56,.36-.56,0,0-.58-.09-.82,.37-.02-.1-.09-.16-.09-.16,0,0,.01,.23-.42,.42-.2,.09-.35,.24-.41,.42-.02,.07-.03,.13-.03,.2,0,.08,.03,.18,.06,.27-.18,.21-.28,.42-.29,.66-.06-.01-.11-.03-.21-.07-.1-.04-.22-.12-.22-.27,0-.02,0-.03,0-.05,.23,.11,.51-.01,.51-.01,0,0-.29-.16-.3-.38,0-.02,0-.05,.01-.08l.05-.12v-.03c.04,.1,.03,.03,.07,.27,0,0,.27-.23,.28-.64,0-.05,0-.11-.02-.17,.16,.03,.38-.09,.38-.09,0,0-.31-.16-.39-.46,.4,.04,.6-.33,.6-.33,0,0-.3,.02-.42-.12-.03-.03-.04-.07-.05-.12,.24-.07,.48,.11,.48,.11,0,0-.04-.36-.43-.66,.19-.25,.19-.49,.19-.49,0,0-.33,.16-.47,.17,.07-.13,.11-.27,.11-.4,0-.17-.07-.3-.07-.3,0,0-.11,.21-.37,.37-.19,.09-.21,.09-.4,.11,0,0-.07,0-.13,.02-.05-.02-.11-.04-.17-.04-.15,0-.28,.09-.35,.22-.32-.06-.54-.06-.66,0-.44-.04-.7,0-.78,.1-.03,.04-.04,.09-.04,.14,0,.05,.02,.1,.04,.14h0c-.02,.06-.04,.11-.04,.17v.03c0,.1,.06,.2,.11,.27-.05,.01-.09,0-.1-.02-.18-.13-.18-.51-.18-.51,0,0-.33,.26-.28,.62,.03,.21,.16,.3,.25,.34,.07,.03,.15,.05,.24,.04-.01,.04-.02,.08-.02,.12,0,.07,.02,.15,.04,.24-.65-.18-.86,.28-.92,.47-.06-.04-.09-.07-.1-.08v-.58s0-.03-.02-.04l-.3-.22h-.02l-.21-.07h-.01s0-.05,0-.07c0-.18-.15-.33-.34-.33-.11,0-.2,.04-.26,.1-.06-.08-.16-.13-.28-.13-.12,0-.23,.06-.29,.16-.05-.06-.13-.09-.23-.09-.17,0-.31,.14-.31,.31h0s-.02,.02-.05,.03c-.07,.02-.23,.07-.42,.15-.01,0-.02,.01-.02,.02h0s-.31,.23-.32,.24c-.01,0-.02,.03-.02,.04v2.15s.02,.05,.05,.05h.89s-.03,.03-.04,.04c-.1,.01-.19,.06-.22,.14-.02,.03-.04,.08-.03,.14,0,.14,.08,.25,.07,.25,.07-.12,.17-.16,.16-.16,.04,.06,.09,.1,.15,.14,.01,0,.03,.01,.04,.02h0s-.02,.06-.03,.08c-.05,.04-.09,.1-.1,.16,0,.02,0,.04,0,.06,.01,.27,.28,.33,.28,.33-.02-.11-.03-.15,0-.2h.02Z" style="fill:#1e1e1c;"/><path d="M13.56,16.71s.09,.02,.31,0c-.17,.31-.47,.14-.5,.2,0,0-.03,.07,.16,.08-.13,.21-.36,.02-.5,.12,0,0-.02,.07,.21,.1-.28,.19-.53,.03-.77,.04-.27,.02-.53,.14-.62,.24-.03,.04-.03,.08-.02,.1,.04,.05,.06,.09,.07,.15,.01,.12-.09,.23-.21,.24-.03,0-.06,0-.09,0-.06,.06-.04,.16,0,.19-.16-.06-.18-.18-.12-.28-.02-.03-.03-.05-.03-.09,0-.1,.07-.21,.16-.24,.06-.02,.07-.09,.04-.13-.05-.06-.14-.02-.15,.05-.01,.14-.09,.21-.21,.22-.07,0-.13-.02-.18-.06-.08,.03-.14,.12-.12,.16-.05-.06-.06-.1-.06-.14,0-.06,.05-.12,.11-.16h0c-.01-.12,.08-.23,.21-.25,.13-.01,.14,.05,.18,.05,.03,0,.05,0,.07-.03,.02-.03,.03-.08-.01-.11-.05-.04-.09-.01-.09-.01-.03,.02-.04,.02-.07,.03-.12,.01-.23-.07-.25-.18-.05,0-.14,.06-.15,.1-.02-.06-.02-.11,0-.15,.02-.07,.1-.11,.18-.11,.04-.06,.1-.1,.17-.11,.12-.01,.23,.07,.25,.18,.01,.07,.12,.18,.39,.12,.12-.03,.25-.09,.36-.15h0c.44-.26,.65-.56,.65-.56,.23-.38-.18-.37-.42-1.07-.08-.23-.09-.42-.07-.57-.06,0-.12,.03-.09,.18,.04,.24-.19,.32-.19,.32,.15-.28-.13-.44-.03-.65,.06-.14,.28-.14,.42-.12,.16-.24,.45-.35,.65-.38,.35-.05,.77-.26,.77-.26,0,0,.27,.12,.41,.18,.12,.05,.38,.13,.49,.32,.11,.19-.05,.41-.05,.41,0,0-.4-.14-.54,.02-.14,.17,.05,.3,.05,.3,0,0-.16,.15-.42-.06,0,0-.08,.08,.09,.22,0,0-.15,.14-.4,0,0,0-.01,.02-.03,.06-.05,.24,.01,.4,.09,.53,.19,.24,.43,.35,.14,.63,.06,.03,.12,0,.36,0-.17,.4-.51,.12-.59,.32Z" style="fill:#e20717;"/><path d="M14.27,15.77c-.07,.05-.15,.11-.19,.2h0v.03s-.02,.07-.02,.1c0,.06,.02,.12,.06,.18-.03,0-.07,0-.09,0,.02-.04,.03-.08,.03-.12,0-.13-.1-.24-.18-.34,0,0-.1-.12-.11-.12-.05-.07-.09-.16-.09-.29,0-.03,0-.05,0-.08,.19,.06,.34,0,.4-.07,0,0,.07-.07,.09-.08,.06,0,.11-.01,.14-.02,.12-.04,.18-.15,.18-.15,0,0-.15-.06-.15-.16,0,0,0-.02,.02-.06,.06-.07,.27-.04,.41,0-.05,.06-.1,.14-.18,.21-.16,.17-.32,.43-.32,.69,0,.02,0,.04,0,.07Z" style="fill:#fff;"/><path d="M16.3,11.34c-.17-.32-.02-.66,.29-.8,.36-.16,.39-.32,.39-.32,.03,.32-.08,.39-.15,.45-.01,.01-.07,.05-.12,.12,.11-.02,.27-.1,.3-.2,.09-.33,.21-.63,.67-.7,0,0-.3,.25-.27,.52,.03,.29,0,.64-.25,.84,.1-.05,.16-.15,.16-.15,.2-.37,.62-.34,.62-.34-.31,.09-.32,.47-.51,.74-.17,.25-.61,.34-.91,.08-.12,.13-.21,.29-.21,.48,0,.38,.13,.61,.47,.87,.11,.09,.23,.18,.34,.28,.02-.03,.03-.09-.1-.2-.19-.16-.02-.4-.02-.4,.04,.34,.2,.27,.38,.44,.22,.21,.06,.45,.03,.5,.08,.14,.13,.31,.13,.5,0,.22-.08,.41-.23,.54-.25,.21-.62,.21-.78,.2,0,.16-.02,.29-.05,.39,.17,.09,.4-.01,.4-.01-.05,.26-.37,.3-.53,.31-.02,0-.03,0-.04,0,.06,.04,.19,.1,.41,.07,0,0-.16,.39-.67,.17-.05,.05-.1,.1-.13,.17-.13,.29,.25,.38,.25,.38h0c.07,.02,.14,.03,.21,.04,.43,.04,.3,.16,.27,.51,0,.04,.17,.03,.35-.04-.05,.37-.44,.19-.47,.42,0,0,.09,.06,.22-.03-.05,.35-.51,.19-.53,.31,.02,.02,.12,.06,.32,.01-.03,.23-.47,.09-.5,.29,0,0,.13,.04,.27-.03-.2,.38-.58,.21-.73,.22-.44,.01-.45,.37-.4,.4,.05,.03,.11,.11,.09,.21-.01,.09-.05,.14-.11,.17,.06,.25-.2,.23-.2,.23,.06-.09,.04-.19,.03-.22-.1-.03-.17-.13-.15-.24,0-.05,.04-.12,.11-.16,.03-.03,.03-.08-.01-.11-.04-.02-.07,0-.09,.02-.02,.03,0,.08,0,.11-.02,.12-.13,.2-.25,.19-.04,0-.07-.02-.1-.04-.05,.02-.1,.07-.1,.17,0,0-.21-.17,0-.31,0-.02,0-.05,0-.07,.02-.12,.12-.2,.29-.18,.08,0,.09-.07,.07-.1-.04-.07-.11,0-.11,0-.05,.05-.12,.08-.2,.07-.12-.02-.2-.12-.19-.24-.05-.02-.12,0-.18,.06,0,0-.04-.3,.26-.21,.05-.04,.11-.06,.17-.05,.1,.01,.15,.09,.19,.17,.02,.03,.06,.05,.17,.06,.3,.04,.8-.7,.85-1.11,.03-.23-.21-.32-.5-.41-.04-.01-.08-.02-.12-.03-.1-.03-.19-.06-.27-.1-.11-.05-.21-.11-.3-.18-.06,.03-.11,.09,.03,.16,.21,.11,.13,.33,.12,.34h0s0-.09-.09-.15c-.06-.04-.12-.05-.12-.05,0,0-.04,0-.09-.03-.03-.01-.06-.03-.09-.04-.03-.02-.05-.04-.07-.06-.06-.07-.09-.15-.06-.23h0v-.02c.04-.09,.14-.15,.22-.19-.07-.28,.12-.58,.27-.74,.26-.27,.34-.48,.34-.48,.05-.17,.17-.46-.77-.82-.58-.22-.87-.51-1.02-.75-.11,.03-.23,.04-.35,.05,.02-.06,.05-.13,.1-.16,.05-.04,.11-.06,.19-.05,.25,.02,.49-.1,.66-.3,0,.06,.02,.12,.05,.18,.05,.09,.18,.25,.46,.28l.19,.02-.08-.18s-.05-.14-.05-.22c0-.06,.02-.08,.03-.08,.09-.06,.18-.13,.25-.22,.23,.4,.71,.31,.71,.31,0,0-.23-.13-.25-.38,0-.02,0-.04,0-.07h0s.05-.08,.07-.13c.03,.03,.06,.05,.11,.07,.02,0,.03,.01,.05,.02,.02,.11,.04,.24,.09,.37,.27,.81,.43,.77,.73,1.08,.24,.22,.33,.52,.35,.66,.03,.15,.16,.16,.19,.16,.13,0,.27-.04,.36-.12,.07-.06,.11-.15,.11-.28,0-.37-.28-.61-.61-.87-.36-.28-.6-.58-.6-1.13,0-.3,.14-.53,.31-.72Z" style="fill:#e20717;"/><path d="M16.52,13.28c.32,.25,.57,.46,.57,.78,0,.12-.04,.17-.07,.19-.06,.05-.16,.08-.29,.09-.07,0-.08-.05-.08-.07-.02-.1-.1-.46-.39-.71-.07-.08-.14-.14-.2-.19-.18-.15-.31-.26-.5-.85-.04-.12-.06-.22-.08-.32,.19,0,.34-.11,.41-.17v.03c0,.64,.32,.97,.64,1.22Z" style="fill:#fff;"/><path d="M13.53,10.39c.38,.19,.4-.23,.4-.23,.52,.2,.78-.15,.8-.2-.11,.09-.25,.15-.4,.15h-.02s-.02,0-.03,0h-.03s-.03,0-.05,0h-.01c-.17-.03-.36-.12-.57-.17-.27-.06-.31,.28-.31,.28-.25-.52,.07-.64,.07-.64,0,.02,.02,.03,.03,.05h0s.05,.05,.08,.07c.04,.03,.1,.05,.16,.06h.05s.03,.01,.04,.01c.2,0,.42-.08,.47-.28-.08-.05-.32-.16-.7,.03-.41,.2-.7,.14-.77-.19-.05-.21,.12-.41,.12-.41,0,0,.04,.52,.37,.45,.32-.07,.66-.27,.99,.06,.01-.34-.32-.4-.59-.34-.29,.07-.24,.22-.24,.22h0s-.18-.16-.19-.32c-.01-.16,.08-.23,.17-.26-.07,0-.15,0-.15,0,0,0-.05-.08,0-.15,.08-.11,.71-.05,.71-.05,.12-.09,.57,0,.7,.02,.04-.14,.15-.23,.29-.24,.17,0,.32,.15,.32,.34,0,.19-.13,.34-.3,.35,.12,.06,.41-.08,.42-.34,0-.22-.12-.33-.12-.33,.19-.02,.23-.03,.43-.12,.15-.07,.28-.23,.28-.23,.03,.23-.09,.44-.2,.58,.09,.03,.25,.02,.56-.14,0,0-.04,.19-.25,.37,.32,.16,.45,.45,.45,.45-.18-.11-.44,0-.44,0-.03,.41,.41,.39,.41,.39-.18,.19-.39,.18-.57,.11,.03,.39,.31,.58,.31,.58-.09,.02-.17,.04-.28-.03-.02,.02-.01,.05,0,.09,.12,.38-.08,.66-.08,.66,0-.25-.17-.39-.17-.39,.02,.24-.04,.28-.1,.47-.08,.26,.15,.43,.15,.43-.31,.06-.39-.21-.39-.21,.01,.06,.02,.16,0,.24-.04,.21,.05,.38,.28,.47h0c.06,.01,.1,.01,.1,.01-.45,.2-.58-.2-.58-.2,0,.2-.13,.32-.14,.35-.07,.24,.12,.4,.12,.4-.16-.02-.37-.17-.43-.35-.04-.1-.04-.29-.04-.29,.01,.25-.13,.39-.34,.53-.17,.11-.01,.44-.01,.44-.38-.05-.47-.35-.41-.5,.06-.14,0-.37,0-.37-.07,.4-.4,.74-.79,.71-.38-.03-.4,.38-.4,.38-.18-.45,.15-.75,.35-.84,.2-.09,.18-.39,.18-.39-.09,.14-.32,.24-.59,.24-.27,0-.46,.27-.46,.27-.05-.33,.31-.74,.63-.82,.04-.01,.07-.03,.11-.04-.15-.05-.38-.04-.68,.23,0,0,.03-.5,.53-.7-.04,0-.09-.02-.13-.03-.2-.07-.41,.06-.41,.06,0,0,.05-.16,.18-.29h0c.05-.05,.11-.09,.18-.12,.09-.03,.29,0,.31-.01-.04-.07-.05-.1-.08-.13-.15-.17-.49-.05-.49-.05,.3-.57,.79-.3,1.17-.11Z" style="fill:#e20717;"/><path d="M13.42,10.22s.03-.13,.08-.16c.01-.01,.04-.02,.09-.01,.08,.02,.15,.04,.22,.06v.05s-.02,.14-.07,.17c-.04,.03-.13,0-.17-.03l-.04-.02s-.08-.04-.11-.06Z" style="fill:#fff;"/><path d="M13.56,9.61c.24-.12,.41-.1,.51-.07-.06,.09-.2,.12-.32,.12h-.08s-.08-.03-.11-.05Z" style="fill:#fff;"/><path d="M12.68,10.57s-.06,0-.09,.02c-.06,.02-.11,.05-.15,.08-.05-.02-.09-.04-.13-.05,.09-.04,.24-.08,.37-.04Z" style="fill:#fff;"/><path d="M12.13,10.66s.11,.07,.2,.1c-.12,.14-.18,.32-.2,.43v-.53Z" style="fill:#e20717;"/><path d="M12.13,11.26s.22-.12,.36-.13c-.19,.18-.27,.39-.3,.56-.02-.01-.03-.02-.04-.03l-.02-.02v-.38Z" style="fill:#e20717;"/><path d="M12.13,11.81l.04,.03v.15s.02-.02,.07-.05c-.05,.08-.09,.17-.11,.25v-.38Z" style="fill:#fff;"/><path d="M12.13,12.21s0,.04-.01,.06c-.27,.05-.52,.07-.74,.05-.07,0-.21-.02-.3-.05-.06-.02-.1-.04-.14-.05h1.19Z" style="fill:#fff;"/><path d="M11.8,11.95s.02-.03,.02-.04v-2.11c.07,.05,.18,.13,.2,.15v2.15h-1.17s.01-.06,.01-.09c0-.05-.01-.1-.03-.15,.18-.06,.49-.09,.91,.1,.02,0,.04,0,.05,0Z" style="fill:#feeb17;"/><path d="M11.53,9.68s.03,0,.04,.01l.14,.04v2.09c-.42-.17-.76-.14-.95-.06-.03-.02-.05-.05-.09-.06,0,0-.02,0-.03-.01v-1.62s.06-.02,.07-.04c.07-.15,.11-.17,.11-.17h0c.05-.03,.11-.06,.15-.12,.03,.02,.06,.03,.09,.05h.01s.03,.04,.09,.17c0,.02,.02,.03,.04,.04,.02,0,.03,0,.05-.01,0,0,0-.01,.02-.03,.06-.12,.08-.15,.09-.15,.07-.02,.12-.07,.16-.14Z" style="fill:#feeb17;"/><path d="M10.17,9.32c.09,0,.16,.04,.19,.11,0,.02,.03,.03,.05,.03,.02,0,.04-.02,.05-.04,.03-.11,.12-.17,.24-.17,.11,0,.19,.05,.23,.14,0,.02,.03,.03,.05,.03,.02,0,.04-.01,.05-.03,.03-.08,.11-.12,.22-.12,.13,0,.24,.1,.24,.23,0,.01,0,.02,0,.03h0s0,.02,0,.03c0,.01,0,.02-.01,.03v.02h-.01v.03h-.02v.02h-.02v.02s-.02,.01-.03,.01h0s-.02,.01-.03,.01c-.03,0-.05,.04-.1,.13-.05-.09-.07-.12-.1-.13h-.02c-.05-.03-.08-.04-.1-.08,0-.02-.03-.03-.05-.03-.02,0-.04,.01-.04,.03-.02,.06-.06,.09-.14,.13-.04,.01-.08,.06-.12,.13-.05-.11-.07-.12-.08-.13-.07-.04-.11-.08-.13-.14,0-.02-.02-.04-.05-.04-.02,0-.04,.01-.05,.03-.01,.04-.04,.05-.09,.07h0s-.04,.03-.09,.12c-.03-.08-.05-.1-.08-.12h-.02v-.02h-.02v-.02h-.02v-.02h-.02v-.02h-.01v-.04h-.01v-.04s0-.02,0-.03c0-.11,.09-.2,.2-.2Z" style="fill:#e20717;"/><path d="M9.82,9.67s.06-.02,.07-.02c.03,.07,.08,.12,.15,.16,.02,.02,.05,.12,.07,.16h0v.02h.02v.02h.05v-.02h.01c.04-.07,.09-.16,.1-.18h0s.06-.03,.09-.05c.03,.05,.07,.09,.14,.12,0,0,.01,.01,.03,.04v1.77s-.1,0-.14,.02c-.11-.05-.23-.04-.3,.04h-.01c-.18,.01-.4,.03-.65,.09v-2.03h0c.16-.06,.29-.1,.37-.13Z" style="fill:#feeb17;"/><path d="M9.15,12.1v-2.07s.06-.05,.14-.11l.06-.05v2.02s0,.03,.02,.04c.01,0,.03,.01,.05,0,.22-.08,.47-.09,.63-.1-.04,.1-.03,.21-.03,.21,0,0,.11-.04,.17-.03,0,.03,0,.05,.01,.08h-.19s0,0-.01,0h-.86Z" style="fill:#feeb17;"/><path d="M10.15,13.22c-.11-.14-.06-.25,.04-.31,0-.03,0-.06,.02-.09,.05-.09,.17-.14,.27-.12,.06,.02,.11-.05,.1-.09-.01-.08-.11-.1-.16-.04-.08,.12-.19,.14-.3,.08-.06-.03-.11-.09-.13-.15-.08-.02-.18,.03-.19,.08-.01-.08,0-.12,.02-.16,.03-.06,.11-.08,.18-.08h0c.05-.12,.19-.16,.31-.1,.12,.06,.1,.12,.13,.14,.03,.02,.05,.02,.08,.01,.03-.01,.07-.06,.05-.1-.02-.06-.08-.06-.08-.06-.04,0-.04,0-.08-.02,0,0-.02,0-.02-.01,0,0-.02-.01-.02-.02,0,0-.01-.01-.02-.02,0,0-.02-.02-.02-.03h0s-.01-.02-.02-.04c-.02-.05-.03-.12,0-.17-.05-.03-.15-.03-.18,0,.01-.04,.02-.07,.04-.09,0-.02,.02-.03,.03-.04,.05-.05,.15-.04,.22,0,.01,0,.03-.01,.05-.02,.03,0,.06,0,.1,0,.02,0,.04,.01,.07,.02h.02v.02s.06,.05,.08,.08c.03,.06,.04,.13,.01,.2h0v.02h0s0,.01,0,.02h0s0,.02,0,.02h0v.03h0v.02c.05,.05,.13,.11,.29,.16,.11,.03,.25,.05,.32,.05,.25,.02,.5,0,.75-.04,0,.16,.08,.27,.08,.27,0,0,.2-.4,.49-.39,.13,0,.26-.02,.37-.05h0c-.18,.09-.45,.33-.46,.68-.01,.32,.16,.41,.21,.43,.03,.04,.08,.1,.15,.16,0,0-.27,.1-.43-.17-.1-.17-.23-.18-.23-.18,0,0-.03,.15,.13,.26,0,0-.22,.08-.35-.13-.13-.2-.11-.23-.23-.25-.17-.04-.32-.08-.43-.11-.1-.03-.16-.05-.18-.05h0c-.2-.07-.39-.08-.49-.05-.05,.01-.07,.05-.07,.07,0,.06,0,.11-.02,.16-.05,.11-.2,.15-.31,.1-.03-.01-.05-.03-.07-.05-.08,.02-.12,.11-.11,.16Z" style="fill:#e20717;"/><path d="M13.29,14.47c-.01,.52-.59,.49-.59,.49,.59,.1,.66-.39,.66-.39,.44-.04,.81-.25,.81-.25-.31,.15-.89,.15-.89,.15Z" style="fill:#1e1e1c;"/><path d="M7.33,11.89c.07-.06,.43-.31,.43-.31,0,0,.35,.26,.43,.31-.03-.09-.16-.5-.16-.5,0,0,.35-.26,.43-.31h-.53s-.14-.42-.16-.51c-.03,.09-.16,.51-.16,.51h-.53c.07,.05,.43,.31,.43,.31,0,0-.13,.41-.16,.5Z" style="fill:#c7c6c5;"/><path d="M15.48,14.4s.67,.55-.36,1.33c0,0,.65-.31,.68-.82,.03-.37-.32-.51-.32-.51Z" style="fill:#1e1e1c;"/><path d="M11.18,10.39c-.22,0-.4,.2-.4,.44,0,.06,.01,.13,.05,.19h-.02s-.06,.03-.06,.06c0,.03,.03,.06,.06,.06h.12s.04,0,.05-.03c.01-.02,0-.04,0-.06-.05-.08-.07-.15-.07-.22,0-.18,.13-.32,.28-.32s.28,.14,.28,.32c0,.07-.03,.14-.08,.22-.01,.02-.01,.04,0,.06,.01,.02,.03,.03,.05,.03h.13s.06-.03,.06-.06-.03-.06-.06-.06h-.03c.03-.07,.05-.13,.05-.2,0-.24-.18-.44-.4-.44Z" style="fill:#1e1e1c;"/><path d="M14.25,9.72s.27-.18,.04-.54c0,0,.06,.32-.04,.54Z" style="fill:#1e1e1c;"/><path d="M14.04,8.81c.18,0,.4,.02,.4,.02,0,0-.2-.19-.31-.19-.11,0-.08,.17-.08,.17Z" style="fill:#1e1e1c;"/><path d="M18.96,11.89c.07-.06,.42-.31,.42-.31,0,0,.36,.26,.43,.31-.03-.09-.16-.5-.16-.5,0,0,.35-.26,.43-.31h-.53s-.13-.42-.16-.51c-.03,.09-.16,.51-.16,.51h-.53c.07,.05,.43,.31,.43,.31l-.16,.5Z" style="fill:#c7c6c5;"/><path d="M9.84,11.12s-.01,0-.02,0h0v-.04l.02-.04,.02-.06h.29v.03s.02,.03,.02,.04c0,.01,0,.03,.01,.04v.02s0,.02-.01,.02v.02h.21v-.02s-.01,0-.02,0c0,0-.01-.02-.02-.03-.01-.03-.03-.07-.04-.12-.02-.04-.03-.09-.05-.14-.02-.05-.03-.09-.05-.14-.02-.04-.03-.09-.04-.12-.01-.04-.02-.06-.03-.09v-.04s0-.01,0-.01h.01v-.02h-.3v.02h.01s0,0,0,.01c0,0,0,.01,0,.03,0,.02-.01,.04-.02,.07,0,.03-.02,.06-.03,.1-.01,.04-.02,.08-.04,.12-.01,.04-.02,.08-.04,.12-.01,.04-.02,.07-.03,.1,0,.03-.02,.06-.02,.08,0,.02,0,.03-.01,.04,0,.01,0,.02-.01,.02,0,0,0,0-.02,0v.02h.19v-.02Z" style="fill:#1e1e1c;"/><polygon points="10 10.51 10.12 10.86 9.89 10.86 10 10.51" style="fill:#feeb17;"/><path d="M13.15,6.98c.07-.05,.42-.31,.42-.31,0,0,.36,.26,.43,.31-.03-.09-.16-.5-.16-.5,0,0,.35-.26,.43-.31h-.52s-.14-.42-.16-.51c-.03,.09-.16,.51-.16,.51h-.53l.43,.31s-.13,.41-.16,.5Z" style="fill:#c7c6c5;"/></g></g></svg>