<?xml version="1.0" encoding="UTF-8"?><svg id="c" xmlns="http://www.w3.org/2000/svg" viewBox="0 0 180 180"><path d="m123.71,149.59c-28.44,15.21-51.18-13.82-73.67-42.98-22.5-29.17-27.78-62.89-11.8-75.34,15.97-12.44,47.16,1.11,69.65,30.27,22.5,29.16,33.66,78.51,15.82,88.05ZM22.32,27.81C1.37,44.13,6.41,85.91,33.59,121.16c27.2,35.22,66.22,50.56,87.17,34.23,20.96-16.33,15.93-58.12-11.28-93.35C82.31,26.82,43.3,11.49,22.32,27.81Z" style="fill:#1469a3; fill-rule:evenodd;"/><path d="m107.11,156.82c-17.8,1.5-34.83-34.36-37.57-66.85-2.69-32.5,9.53-60.04,27.33-61.54,17.8-1.51,34.44,23.62,37.14,56.12,2.73,32.49-9.1,70.79-26.91,72.28ZM86.76,18.17c-23.36,1.96-39.65,35.37-36.36,74.61,3.27,39.27,24.87,69.49,48.21,67.51,23.35-1.95,39.62-35.37,36.35-74.63-3.27-39.25-24.86-69.47-48.2-67.49Z" style="fill:#d68929; fill-rule:evenodd;"/><path d="m96.76,151.26c-13.23-9.7-9.75-37.15,7.78-61.32,17.53-24.18,42.48-35.9,55.73-26.21,13.24,9.69,9.75,37.13-7.78,61.32-17.52,24.17-42.48,35.9-55.72,26.2Zm62.61-100.74c-17.38-12.72-48.63.64-69.81,29.85-21.19,29.19-24.27,63.17-6.89,75.89,17.35,12.71,48.62-.65,69.8-29.86,21.17-29.19,24.26-63.17,6.9-75.89Z" style="fill:#c7532f; fill-rule:evenodd;"/></svg>